<?xml version="1.0" standalone="no"?>
<!DOCTYPE svg PUBLIC "-//W3C//DTD SVG 20010904//EN"
 "http://www.w3.org/TR/2001/REC-SVG-20010904/DTD/svg10.dtd">
<svg version="1.0" xmlns="http://www.w3.org/2000/svg"
 width="234.000000pt" height="185.000000pt" viewBox="0 0 234.000000 185.000000"
 preserveAspectRatio="xMidYMid meet">

<g transform="translate(0.000000,185.000000) scale(0.100000,-0.100000)"
fill="#000000" stroke="none">
<path d="M1189 1769 c-8 -5 -37 -16 -66 -24 -79 -23 -96 -51 -91 -148 4 -67
11 -90 48 -162 50 -100 77 -130 148 -162 l52 -24 0 -92 c0 -107 -17 -155 -73
-204 -94 -82 -240 -65 -312 36 -28 40 -30 50 -33 144 l-3 102 41 18 c64 30 87
95 55 157 -32 63 -138 81 -194 35 -73 -62 -55 -162 36 -200 l33 -14 0 -91 c0
-77 4 -98 25 -140 85 -167 342 -167 431 1 13 24 19 66 23 143 l6 109 39 14
c59 20 99 55 137 120 50 83 69 137 75 207 8 92 -13 124 -96 154 -86 31 -94 31
-98 5 -3 -21 1 -23 38 -23 52 0 105 -22 120 -51 19 -35 7 -137 -25 -208 -21
-47 -42 -74 -82 -106 -94 -77 -136 -79 -235 -12 -83 55 -148 218 -124 311 9
35 46 57 108 65 37 4 54 11 56 22 4 20 -19 31 -39 18z m-285 -354 c58 -53 15
-145 -68 -145 -34 0 -75 38 -82 77 -5 27 -1 37 24 63 39 39 87 41 126 5z"/>
<path d="M1225 869 c-81 -19 -174 -54 -315 -117 -245 -109 -318 -131 -461
-139 l-105 -6 -71 36 c-66 33 -83 36 -83 16 0 -11 74 -49 177 -91 74 -30 85
-32 208 -32 163 0 210 14 453 134 189 94 239 114 342 136 83 18 214 17 265 -1
41 -15 66 -7 42 13 -8 7 -50 22 -93 33 -90 24 -293 35 -359 18z"/>
<path d="M1247 663 c-4 -3 -7 -37 -7 -75 l0 -68 33 1 c28 0 29 1 11 9 -12 5
-25 13 -29 19 -11 20 5 51 28 52 20 1 20 2 -3 8 -14 4 -25 13 -25 21 0 8 11
20 25 27 l25 13 -26 0 c-14 0 -29 -3 -32 -7z"/>
<path d="M1500 635 c0 -18 -7 -26 -24 -31 -31 -7 -46 1 -46 27 0 11 -4 18 -10
14 -5 -3 -9 -31 -9 -61 1 -63 12 -63 18 -1 1 5 16 7 33 5 27 -2 34 -8 39 -33
5 -21 7 -9 8 38 0 37 -1 67 -4 67 -3 0 -5 -11 -5 -25z"/>
<path d="M160 150 c0 -7 179 -10 516 -10 341 0 513 3 509 10 -9 14 -1025 14
-1025 0z"/>
</g>
</svg>
